<svg xmlns="http://www.w3.org/2000/svg" viewBox="0 0 100 100">
  <circle cx="50" cy="50" r="47" fill="#33302B"/>
  <circle cx="50" cy="50" r="40" fill="#FAF7F2"/>
  <path fill-rule="evenodd" fill="#33302B"
    transform="translate(36.14,56.70)"
    d="M16.845703125,-17.7666015625L14.1953125,-17.025390625 12.1064453125,-14.9365234375 12.1064453125,-8.3779296875 14.060546875,-6.513671875 16.845703125,-5.794921875 19.0244140625,-6.23291015625 20.8212890625,-7.46826171875 22.0341796875,-9.35498046875 22.4833984375,-11.724609375 22.04541015625,-14.2626953125 20.84375,-16.16064453125 19.046875,-17.35107421875 16.845703125,-17.7666015625z M17.33984375,-23.9658203125L19.810546875,-23.724365234375 22.1015625,-23 25.919921875,-20.3720703125 28.44677734375,-16.486328125 29.1290283203125,-14.1953125 29.3564453125,-11.76953125 29.1346435546875,-9.326904296875 28.46923828125,-7.0302734375 25.9873046875,-3.15576148033142 22.18017578125,-0.550293207168579 19.8638916015625,0.165649354457855 17.33984375,0.404296785593033 14.5771484375,0.123535148799419 12.1064453125,-0.67382824420929 12.1064453125,4.4248046875 16.5537109375,4.4248046875 16.5537109375,10.5791015625 1.37011694908142,10.5791015625 1.37011694908142,4.4248046875 5.1884765625,4.4248046875 5.1884765625,-17.115234375 2.67285180091858,-17.115234375 2.67285180091858,-23.26953125 12.8251953125,-23.26953125 12.8251953125,-22.9326171875 15.0263671875,-23.68505859375 17.33984375,-23.9658203125z"/>
</svg>
